<?xml version="1.0" encoding="iso-8859-1"?>
<!-- Generator: Adobe Illustrator 18.1.1, SVG Export Plug-In . SVG Version: 6.00 Build 0)  -->
<svg xmlns="http://www.w3.org/2000/svg" xmlns:xlink="http://www.w3.org/1999/xlink" version="1.1" id="Capa_1" x="0px" y="0px" viewBox="0 0 25.734 25.734" style="enable-background:new 0 0 25.734 25.734;" xml:space="preserve" width="512px" height="512px">
<g>
	<g>
		<path d="M21.229,2.483V1.399h0.945V0H3.56v1.399h0.945v1.083h0.174c0,3.274,3.577,7.68,6.106,10.384    c-2.529,2.704-6.106,7.108-6.106,10.385H4.504v1.081H3.56v1.402h18.614v-1.402h-0.943v-1.081h-0.176    c0-3.276-3.576-7.681-6.105-10.385c2.529-2.704,6.105-7.11,6.105-10.384h0.174V2.483z M13.647,12.868    c1.873,1.938,6.465,7.023,6.465,10.385h-1.619c-0.044-0.218-0.139-0.429-0.332-0.597l-4.561-3.76    c-0.36-0.297-0.877-0.303-1.246-0.015c-1.431,1.119-4.78,3.774-4.78,3.774c-0.194,0.168-0.289,0.379-0.333,0.597H5.623    c0-3.361,4.591-8.447,6.465-10.385c-1.874-1.936-6.465-7.024-6.465-10.384h14.488C20.112,5.844,15.52,10.932,13.647,12.868z" fill="#5bc0de"/>
		<path d="M8.997,5.276c-0.369,0.431-0.369,1.13,0,1.562l3.136,3.424c0.188,0.206,0.455,0.323,0.734,0.323    s0.545-0.117,0.734-0.323l3.137-3.425c0.368-0.432,0.368-1.131,0-1.562L8.997,5.276L8.997,5.276z" fill="#5bc0de"/>
	</g>
</g>
<g>
</g>
<g>
</g>
<g>
</g>
<g>
</g>
<g>
</g>
<g>
</g>
<g>
</g>
<g>
</g>
<g>
</g>
<g>
</g>
<g>
</g>
<g>
</g>
<g>
</g>
<g>
</g>
<g>
</g>
</svg>
