<?xml version="1.0" encoding="iso-8859-1"?>
<!-- Generator: Adobe Illustrator 16.0.0, SVG Export Plug-In . SVG Version: 6.00 Build 0)  -->
<!DOCTYPE svg PUBLIC "-//W3C//DTD SVG 1.1//EN" "http://www.w3.org/Graphics/SVG/1.1/DTD/svg11.dtd">
<svg xmlns="http://www.w3.org/2000/svg" xmlns:xlink="http://www.w3.org/1999/xlink" version="1.1" id="Capa_1" x="0px" y="0px" width="512px" height="512px" viewBox="0 0 43.966 43.966" style="enable-background:new 0 0 43.966 43.966;" xml:space="preserve">
<g>
	<g>
		<g>
			<circle cx="38.646" cy="11.342" r="5.32" fill="#5bc0de"/>
			<path d="M39.077,34.525c-1.137-0.335-2.322,0.318-2.654,1.452c-0.514,1.757-2.364,2.765-4.12,2.255l-7.407-2.167l2.341-7.41     c0.888-2.802-0.67-5.803-3.477-6.69l-0.221-0.07l2.676-1.052l10.269,3.381c0.224,0.072,0.447,0.105,0.669,0.105     c0.897,0,1.734-0.57,2.03-1.47c0.369-1.124-0.24-2.332-1.362-2.702l-7.066-2.327c0.503-1.037,0.601-2.268,0.146-3.426     c-0.415-1.056-1.231-1.903-2.271-2.356s-2.217-0.475-3.272-0.06l-4.311,1.694L7.005,5.13l0.834-1.369     c0.461-0.756,0.222-1.744-0.535-2.205C6.548,1.095,5.562,1.335,5.102,2.091l-0.835,1.37L2.438,2.348     C1.683,1.886,0.695,2.127,0.233,2.884c-0.46,0.756-0.22,1.743,0.536,2.205l1.827,1.112L1.763,7.57     C1.302,8.327,1.541,9.314,2.297,9.775C2.559,9.934,2.847,10.01,3.13,10.01c0.541,0,1.069-0.274,1.371-0.77l0.835-1.37     l11.96,7.287l-5.364,2.108c-2.096,0.824-3.452,2.891-3.375,5.146c0.08,2.251,1.576,4.221,3.722,4.896l5.831,1.843l-1.426,4.513     L3.199,29.719c-1.131-0.334-2.321,0.317-2.653,1.452s0.319,2.321,1.453,2.652l29.106,8.514c0.709,0.208,1.425,0.308,2.13,0.308     c3.288,0,6.328-2.154,7.297-5.465C40.859,36.045,40.21,34.856,39.077,34.525z" fill="#5bc0de"/>
		</g>
	</g>
</g>
<g>
</g>
<g>
</g>
<g>
</g>
<g>
</g>
<g>
</g>
<g>
</g>
<g>
</g>
<g>
</g>
<g>
</g>
<g>
</g>
<g>
</g>
<g>
</g>
<g>
</g>
<g>
</g>
<g>
</g>
</svg>
